# AST/ASF file generated using VICON BodyLanguage
# -----------------------------------------------
:version 1.10
:name VICON
:units
  mass 1.0
  length 0.45
  angle deg
:documentation
   .ast/.asf automatically generated from VICON data using
   VICON BodyBuilder and BodyLanguage model FoxedUp or BRILLIANT.MOD
:root
   order TX TY TZ RX RY RZ
   axis XYZ
   position 0 0 0  
   orientation 0 0 0 
:bonedata
  begin
     id 1 
     name lhipjoint
     direction 0.711131 -0.61297 0.344326 
     length 2.29162 
     axis 0 0 0  XYZ
  end
  begin
     id 2 
     name lfemur
     direction 0.34202 -0.939693 0  
     length 6.71424  
     axis 0 0 20  XYZ
    dof rx ry rz
    limits (-160.0 20.0)
           (-70.0 70.0)
           (-60.0 70.0)
  end
  begin
     id 3 
     name ltibia
     direction 0.34202 -0.939693 0   
     length 6.7087   
     axis 0 0 20   XYZ
    dof rx
    limits (-10.0 170.0)
  end
  begin
     id 4 
     name lfoot
     direction 0.0230374 -0.0632947 0.997729   
     length 1.56743   
     axis -90 7.62852e-016 20   XYZ
    dof rx rz
    limits (-45.0 90.0)
           (-70.0 20.0)
  end
  begin
     id 5 
     name ltoes
     direction 1.53585e-011 -4.21885e-011 1   
     length 0.802914   
     axis -90 7.62852e-016 20   XYZ
    dof rx
    limits (-90.0 20.0)
  end
  begin
     id 6 
     name rhipjoint
     direction -0.733192 -0.592884 0.333043   
     length 2.36925  
     axis 0 0 0  XYZ 
  end
  begin
     id 7 
     name rfemur
     direction -0.34202 -0.939693 0   
     length 6.67027   
     axis 0 0 -20   XYZ
    dof rx ry rz
    limits (-160.0 20.0)
           (-70.0 70.0)
           (-70.0 60.0)
  end
  begin
     id 8 
     name rtibia
     direction -0.34202 -0.939693 0   
     length 6.6862   
     axis 0 0 -20   XYZ
    dof rx
    limits (-10.0 170.0)
 end
 begin
     id 9 
     name rfoot
     direction -0.0949739 -0.260939 0.960672   
     length 1.67698  
     axis -90 -7.62852e-016 -20   XYZ
    dof rx rz
    limits (-45.0 90.0)
           (-20.0 70.0)
  end
  begin
     id 10 
     name rtoes
     direction -1.5353e-011 -4.21868e-011 1   
     length 0.846298   
     axis -90 -7.62852e-016 -20   XYZ
    dof rx
    limits (-90.0 20.0)
  end
  begin
     id 11 
     name lowerback
     direction -0.0206828 0.999785 -0.00109866   
     length 2.04382   
     axis 0 0 0   XYZ
    dof rx ry rz
    limits (-20.0 45.0)
           (-30.0 30.0)
           (-30.0 30.0)
  end
  begin
     id 12 
     name upperback
     direction -0.0105003 0.999727 -0.0208904   
     length 2.04538   
     axis 0 0 0   XYZ
    dof rx ry rz
    limits (-20.0 45.0)
           (-30.0 30.0)
           (-30.0 30.0)
  end
  begin
     id 13 
     name thorax
     direction -0.000416255 0.999808 -0.0196023   
     length 2.0399   
     axis 0 0 0   XYZ
    dof rx ry rz
    limits (-20.0 45.0)
           (-30.0 30.0)
           (-30.0 30.0)
  end
  begin
     id 14 
     name lowerneck
     direction 0.0627861 0.989205 0.13241   
     length 1.46207   
     axis 0 0 0   XYZ
    dof rx ry rz
    limits (-20.0 45.0)
           (-30.0 30.0)
           (-30.0 30.0)
  end
  begin
     id 15 
     name upperneck
     direction 0.00627179 0.994526 0.104303   
     length 1.41419   
     axis 0 0 0   XYZ
    dof rx ry rz
    limits (-20.0 45.0)
           (-30.0 30.0)
           (-30.0 30.0)
  end
  begin
     id 16
     name head
     direction -0.00443838 0.999688 0.0245968  
     length 1.50718  
     axis 0 0 0   XYZ
    dof rx ry rz
    limits (-20.0 45.0)
           (-30.0 30.0)
           (-30.0 30.0)
  end
  begin
     id 17 
     name lclavicle
     direction 0.758742 0.650995 -0.0227258  
     length 2.86888  
     axis 0 0 0   XYZ
    dof ry rz
    limits (-20.0 10.0)
           (0.0 20.0)
  end
  begin
     id 18 
     name lhumerus
     direction 1 -4.48962e-011 1.06664e-027   
     length 4.65776   
     axis -180 -30 -90   XYZ
    dof rx ry rz
    limits (-60.0 90.0)
           (-90.0 90.0)
           (-90.0 90.0)
  end
  begin
     id 19
     name lradius
     direction 1 -4.48968e-011 1.40404e-026   
     length 3.55539   
     axis -180 -30 -90   XYZ
    dof rx
    limits (-10.0 170.0)
  end
  begin
     id 20
     name lwrist
     direction 1 -4.48976e-011 3.32647e-026   
     length 1.77769   
     axis -2.20186e-014 90 90   XYZ
    dof ry
    limits (-180.0 0.0)
 end
  begin
     id 21 
     name lhand
     direction 1 -4.48982e-011 6.65293e-026   
     length 0.707264   
     axis -4.24514e-014 90 90   XYZ
    dof rx rz
    limits (-90.0 90.0)
           (-45.0 45.0)
  end
  begin
     id 22 
     name lfingers
     direction 1 -4.48966e-011 1.33059e-025   
     length 0.570215   
     axis -8.49028e-014 90 90   XYZ
    dof rx
    limits (0.0 90.0)
  end
  begin
     id 23
     name lthumb
     direction 0.707107 -6.3493e-011 0.707107   
     length 0.818718   
     axis -90 45 2.85299e-015   XYZ
    dof rx rz
    limits (-45.0 45.0)
           (-45.0 45.0)
  end
  begin
     id 24 
     name rclavicle
     direction -0.870343 0.482028 -0.100759   
     length 3.2251  
     axis 0 0 0   XYZ 
    dof ry rz
    limits (-10.0 20.0)
           (-20.0 0.0)
  end
  begin
     id 25 
     name rhumerus
     direction -1 -4.48974e-011 -9.45849e-028  
     length 4.71925   
     axis -180 30 90   XYZ
    dof rx ry rz
    limits (-90.0 60.0)
           (-90.0 90.0)
           (-90.0 90.0)
  end
  begin
     id 26 
     name rradius
     direction -1 -4.48965e-011 1.17607e-026   
     length 3.5699   
     axis -180 30 90   XYZ
    dof rx
    limits (-10.0 170.0)
  end
  begin
     id 27 
     name rwrist
     direction -1 -4.48968e-011 3.32647e-026   
     length 1.78495   
     axis -2.20186e-014 -90 -90   XYZ
    dof ry
    limits (-180.0 0.0)
  end
  begin
     id 28
     name rhand
     direction -1 -4.48995e-011 6.65293e-026   
     length 0.507757   
     axis -4.24514e-014 -90 -90   XYZ
    dof rx rz
    limits (-90.0 90.0)
           (-45.0 45.0)
  end
  begin
     id 29
     name rfingers
     direction -1 -4.48864e-011 1.33059e-025   
     length 0.409367   
     axis -8.49028e-014 -90 -90   XYZ
    dof rx
    limits (0.0 90.0)
  end
  begin
     id 30
     name rthumb
     direction -0.707107 -6.3494e-011 0.707107   
     length 0.587771   
     axis -90 -45 -2.85299e-015   XYZ
    dof rx rz
    limits (-45.0 45.0)
           (-45.0 45.0)
  end
:hierarchy
  begin
    root lhipjoint rhipjoint lowerback
    lhipjoint lfemur
    lfemur ltibia
    ltibia lfoot
    lfoot ltoes
    rhipjoint rfemur
    rfemur rtibia
    rtibia rfoot
    rfoot rtoes
    lowerback upperback
    upperback thorax
    thorax lowerneck lclavicle rclavicle
    lowerneck upperneck
    upperneck head
    lclavicle lhumerus
    lhumerus lradius
    lradius lwrist
    lwrist lhand lthumb
    lhand lfingers
    rclavicle rhumerus
    rhumerus rradius
    rradius rwrist
    rwrist rhand rthumb
    rhand rfingers
  end

#!OML:ASF E:\Steps\Project 1\Capture day 1\Session 2\Subject.ASF
:FULLY-SPECIFIED
:DEGREES
62
root 7.28443 16.2893 31.5272 -156.649 -3.02298 177.841
lowerback -29.8916 -1.64021 -7.40429
upperback -1.08676 -0.235293 -0.215009
thorax 14.5193 -0.853482 3.62793
lowerneck -6.78667 -1.76985 -0.756771
upperneck 6.77498 -2.56954 2.7743
head 3.4434 -1.20053 0.911604
rclavicle 4.22417e-015 -7.55382e-015
rhumerus -34.8396 -21.7232 -77.5217
rradius 29.0934
rwrist 1.59867
rhand -10.046 -54.7178
rfingers 7.12502
rthumb 15.9393 -84.0819
lclavicle 4.22417e-015 -7.55382e-015
lhumerus -27.4956 5.1406 83.1907
lradius 22.6603
lwrist -4.6526
lhand -19.0252 -14.3978
lfingers 7.12502
lthumb 7.28087 15.4569
rfemur -21.8717 5.51641 19.2082
rtibia 9.20154
rfoot -19.7316 -9.32733
rtoes -35.3724
lfemur -25.2696 -10.0919 -20.6263
ltibia 13.6443
lfoot -10.5669 1.45799
ltoes -41.4402
63
root 7.28171 16.2889 31.5258 -156.697 -3.01848 177.852
lowerback -29.8651 -1.63323 -7.37183
upperback -1.06649 -0.23388 -0.217061
thorax 14.5314 -0.849786 3.60961
lowerneck -6.91036 -1.85389 -0.598478
upperneck 6.92846 -2.68252 2.54388
head 3.51541 -1.25931 0.800979
rclavicle -1.62506e-014 2.26615e-014
rhumerus -34.762 -21.6606 -77.5788
rradius 29.0961
rwrist 1.57854
rhand -10.0105 -54.5724
rfingers 7.12502
rthumb 15.9736 -83.9338
lclavicle -1.62506e-014 2.26615e-014
lhumerus -27.451 5.12736 83.1978
lradius 22.7382
lwrist -4.68018
lhand -19.0756 -14.2745
lfingers 7.12502
lthumb 7.23214 15.5819
rfemur -21.8195 5.45143 19.2245
rtibia 9.20105
rfoot -19.7379 -9.28656
rtoes -35.4993
lfemur -25.1755 -10.1269 -20.622
ltibia 13.5732
lfoot -10.592 1.52717
ltoes -41.5164
64
root 7.28121 16.2924 31.5202 -156.897 -3.10014 177.797
lowerback -29.7036 -1.69625 -7.45592
upperback -1.01702 -0.287004 -0.209387
thorax 14.5216 -0.874532 3.64589
lowerneck -6.93342 -1.90539 -0.510306
upperneck 6.965 -2.75284 2.44282
head 3.53013 -1.29541 0.74816
rclavicle -4.29872e-015 7.95139e-015
rhumerus -34.7551 -21.3531 -77.707
rradius 29.1971
rwrist 1.33377
rhand -9.95914 -54.3679
rfingers 7.12502
rthumb 16.023 -83.7253
lclavicle -4.29872e-015 7.95139e-015
lhumerus -27.4414 5.20766 83.1494
lradius 22.7758
lwrist -4.84491
lhand -19.1863 -13.8994
lfingers 7.12502
lthumb 7.12534 15.9606
rfemur -21.4641 5.5462 19.16
rtibia 8.99403
rfoot -19.6845 -9.40115
rtoes -35.2912
lfemur -24.8529 -10.2082 -20.7018
ltibia 13.4447
lfoot -10.5903 1.5991
ltoes -42.2013
65
root 7.28005 16.2863 31.5251 -156.573 -2.90298 177.912
lowerback -30.0007 -1.61591 -7.36283
upperback -1.11599 -0.219767 -0.20721
thorax 14.5331 -0.847511 3.61788
lowerneck -6.94917 -1.92439 -0.416051
upperneck 7.03556 -2.78576 2.37909
head 3.55528 -1.31169 0.70854
rclavicle -1.21756e-015 1.25234e-014
rhumerus -34.7583 -21.4027 -77.734
rradius 29.1975
rwrist 1.47541
rhand -9.89464 -54.2969
rfingers 7.12502
rthumb 16.0851 -83.6493
lclavicle -1.21756e-015 1.25234e-014
lhumerus -27.4251 5.31767 83.0759
lradius 22.7588
lwrist -5.00885
lhand -19.3787 -14.1737
lfingers 7.12502
lthumb 6.9396 15.6926
rfemur -21.9725 5.64426 19.2227
rtibia 9.15217
rfoot -19.6705 -9.23028
rtoes -35.2413
lfemur -25.2823 -10.0574 -20.5715
ltibia 13.5576
lfoot -10.5756 1.72686
ltoes -42.8638
66
root 7.27884 16.2947 31.5125 -156.955 -3.10518 177.899
lowerback -29.7592 -1.70269 -7.36263
upperback -1.00761 -0.324596 -0.187156
thorax 14.5637 -0.887144 3.6043
lowerneck -7.02734 -1.99374 -0.225058
upperneck 7.25837 -2.8791 2.07437
head 3.63997 -1.36367 0.56823
rclavicle -3.10601e-015 -4.57205e-014
rhumerus -34.7491 -21.4231 -77.7543
rradius 29.2052
rwrist 1.61396
rhand -9.86691 -54.2977
rfingers 7.12502
rthumb 16.1118 -83.6479
lclavicle -3.10601e-015 -4.57205e-014
lhumerus -27.4213 5.47937 83.0187
lradius 22.7417
lwrist -5.10139
lhand -19.5275 -14.5548
lfingers 7.12502
lthumb 6.79593 15.3161
rfemur -21.3102 5.65227 19.2807
rtibia 8.86689
rfoot -19.6397 -9.49383
rtoes -35.5178
lfemur -24.7773 -10.2084 -20.6183
ltibia 13.4816
lfoot -10.5391 1.62558
ltoes -42.5134
67
root 7.27881 16.2891 31.5158 -156.749 -3.00247 177.946
lowerback -29.9405 -1.68034 -7.33501
upperback -1.06352 -0.310664 -0.16225
thorax 14.5791 -0.885203 3.61803
lowerneck -7.0083 -1.97704 -0.268445
upperneck 7.29444 -2.84723 2.01234
head 3.64799 -1.35152 0.557236
rclavicle 3.42904e-015 1.98785e-016
rhumerus -34.647 -21.5768 -77.7016
rradius 29.0682
rwrist 1.74928
rhand -9.80694 -54.403
rfingers 7.12502
rthumb 16.1696 -83.7486
lclavicle 3.42904e-015 1.98785e-016
lhumerus -27.4339 5.58605 83.0134
lradius 22.765
lwrist -5.11116
lhand -19.5872 -14.468
lfingers 7.12502
lthumb 6.7383 15.4048
rfemur -21.6552 5.58153 19.3418
rtibia 9.02447
rfoot -19.6785 -9.38728
rtoes -35.9433
lfemur -25.044 -10.0458 -20.5779
ltibia 13.5306
lfoot -10.5023 1.56705
ltoes -42.2598
68
root 7.27718 16.2912 31.5154 -156.821 -2.98799 177.938
lowerback -29.87 -1.67781 -7.34642
upperback -1.02887 -0.300878 -0.153126
thorax 14.587 -0.879642 3.64002
lowerneck -6.98489 -1.93406 -0.401562
upperneck 7.18631 -2.78205 2.13449
head 3.60959 -1.318 0.625018
rclavicle 1.49585e-014 -3.10104e-014
rhumerus -34.5121 -21.6573 -77.7212
rradius 28.9947
rwrist 1.70568
rhand -9.8984 -54.8794
rfingers 7.12502
rthumb 16.0815 -84.2321
lclavicle 1.49585e-014 -3.10104e-014
lhumerus -27.4206 5.63411 83.0285
lradius 22.8116
lwrist -5.12003
lhand -19.6158 -14.27
lfingers 7.12502
lthumb 6.71073 15.6036
rfemur -21.5809 5.61724 19.2999
rtibia 9.02219
rfoot -19.7012 -9.39895
rtoes -35.9462
lfemur -24.9529 -10.1446 -20.5872
ltibia 13.5059
lfoot -10.5397 1.74281
ltoes -42.9986
